<?xml version="1.0" encoding="UTF-8"?><svg xmlns="http://www.w3.org/2000/svg" xmlns:xlink="http://www.w3.org/1999/xlink" fill-opacity="1" color-rendering="auto" color-interpolation="auto" text-rendering="auto" stroke="black" stroke-linecap="square" width="538" stroke-miterlimit="10" shape-rendering="auto" stroke-opacity="1" fill="black" stroke-dasharray="none" font-weight="normal" stroke-width="1" height="971" font-family="'Dialog'" font-style="normal" stroke-linejoin="miter" font-size="12px" stroke-dashoffset="0" image-rendering="auto">
  <!--Generated by ySVG 2.5-->
  <defs id="genericDefs"/>
  <g>
    <defs id="defs1">
      <clipPath clipPathUnits="userSpaceOnUse" id="clipPath1">
        <path d="M0 0 L538 0 L538 971 L0 971 L0 0 Z"/>
      </clipPath>
      <clipPath clipPathUnits="userSpaceOnUse" id="clipPath2">
        <path d="M257 310 L795 310 L795 1281 L257 1281 L257 310 Z"/>
      </clipPath>
    </defs>
    <g fill="white" text-rendering="geometricPrecision" shape-rendering="geometricPrecision" transform="translate(-257,-310)" stroke="white">
      <rect x="257" width="538" height="971" y="310" clip-path="url(#clipPath2)" stroke="none"/>
    </g>
    <g fill="rgb(224,234,255)" text-rendering="geometricPrecision" shape-rendering="geometricPrecision" transform="matrix(1,0,0,1,-257,-310)" stroke="rgb(224,234,255)">
      <ellipse rx="51" ry="28.5" clip-path="url(#clipPath2)" cx="323" cy="353.5" stroke="none"/>
    </g>
    <g text-rendering="geometricPrecision" stroke-miterlimit="1.45" shape-rendering="geometricPrecision" font-family="sans-serif" transform="matrix(1,0,0,1,-257,-310)" stroke-linecap="butt">
      <text x="290.6533" xml:space="preserve" y="358.2139" clip-path="url(#clipPath2)" stroke="none">Source Text</text>
      <ellipse rx="51" fill="none" ry="28.5" clip-path="url(#clipPath2)" cx="323" cy="353.5"/>
    </g>
    <g fill="rgb(224,234,255)" text-rendering="geometricPrecision" shape-rendering="geometricPrecision" transform="matrix(1,0,0,1,-257,-310)" stroke="rgb(224,234,255)">
      <rect x="386" width="102" height="57" y="420" clip-path="url(#clipPath2)" stroke="none"/>
    </g>
    <g text-rendering="geometricPrecision" stroke-miterlimit="1.45" shape-rendering="geometricPrecision" font-family="sans-serif" transform="matrix(1,0,0,1,-257,-310)" stroke-linecap="butt">
      <text x="414.998" xml:space="preserve" y="453.2139" clip-path="url(#clipPath2)" stroke="none">src-to-IL</text>
      <rect fill="none" x="386" width="102" height="57" y="420" clip-path="url(#clipPath2)"/>
    </g>
    <g fill="rgb(224,234,255)" text-rendering="geometricPrecision" shape-rendering="geometricPrecision" transform="matrix(1,0,0,1,-257,-310)" stroke="rgb(224,234,255)">
      <ellipse rx="51" ry="28.5" clip-path="url(#clipPath2)" cx="437" cy="535.5" stroke="none"/>
    </g>
    <g text-rendering="geometricPrecision" stroke-miterlimit="1.45" shape-rendering="geometricPrecision" font-family="sans-serif" transform="matrix(1,0,0,1,-257,-310)" stroke-linecap="butt">
      <text x="431.9961" xml:space="preserve" y="532.8633" clip-path="url(#clipPath2)" stroke="none">IL</text>
      <text x="426.3301" xml:space="preserve" y="547.5645" clip-path="url(#clipPath2)" stroke="none">Unit</text>
      <ellipse rx="51" fill="none" ry="28.5" clip-path="url(#clipPath2)" cx="437" cy="535.5"/>
    </g>
    <g fill="rgb(224,234,255)" text-rendering="geometricPrecision" shape-rendering="geometricPrecision" transform="matrix(1,0,0,1,-257,-310)" stroke="rgb(224,234,255)">
      <rect x="386" width="102" height="57" y="602" clip-path="url(#clipPath2)" stroke="none"/>
    </g>
    <g text-rendering="geometricPrecision" stroke-miterlimit="1.45" shape-rendering="geometricPrecision" font-family="sans-serif" transform="matrix(1,0,0,1,-257,-310)" stroke-linecap="butt">
      <text x="405.6406" xml:space="preserve" y="620.5127" clip-path="url(#clipPath2)" stroke="none">Load IL into</text>
      <text x="394.9795" xml:space="preserve" y="635.2139" clip-path="url(#clipPath2)" stroke="none">Comprehensive</text>
      <text x="428" xml:space="preserve" y="649.915" clip-path="url(#clipPath2)" stroke="none">VM</text>
      <rect fill="none" x="386" width="102" height="57" y="602" clip-path="url(#clipPath2)"/>
    </g>
    <g fill="rgb(224,234,255)" text-rendering="geometricPrecision" shape-rendering="geometricPrecision" transform="matrix(1,0,0,1,-257,-310)" stroke="rgb(224,234,255)">
      <rect x="386" width="102" height="57" y="792" clip-path="url(#clipPath2)" stroke="none"/>
    </g>
    <g text-rendering="geometricPrecision" stroke-miterlimit="1.45" shape-rendering="geometricPrecision" font-family="sans-serif" transform="matrix(1,0,0,1,-257,-310)" stroke-linecap="butt">
      <text x="388.6338" xml:space="preserve" y="825.2139" clip-path="url(#clipPath2)" stroke="none">Capture Snapshot</text>
      <rect fill="none" x="386" width="102" height="57" y="792" clip-path="url(#clipPath2)"/>
    </g>
    <g fill="rgb(224,234,255)" text-rendering="geometricPrecision" shape-rendering="geometricPrecision" transform="matrix(1,0,0,1,-257,-310)" stroke="rgb(224,234,255)">
      <ellipse rx="51" ry="28.5" clip-path="url(#clipPath2)" cx="437" cy="915.5" stroke="none"/>
    </g>
    <g text-rendering="geometricPrecision" stroke-miterlimit="1.45" shape-rendering="geometricPrecision" font-family="sans-serif" transform="matrix(1,0,0,1,-257,-310)" stroke-linecap="butt">
      <text x="411.6465" xml:space="preserve" y="920.2139" clip-path="url(#clipPath2)" stroke="none">Snapshot</text>
      <ellipse rx="51" fill="none" ry="28.5" clip-path="url(#clipPath2)" cx="437" cy="915.5"/>
    </g>
    <g fill="rgb(224,234,255)" text-rendering="geometricPrecision" shape-rendering="geometricPrecision" transform="matrix(1,0,0,1,-257,-310)" stroke="rgb(224,234,255)">
      <rect x="386" width="102" height="57" y="982" clip-path="url(#clipPath2)" stroke="none"/>
    </g>
    <g text-rendering="geometricPrecision" stroke-miterlimit="1.45" shape-rendering="geometricPrecision" font-family="sans-serif" transform="matrix(1,0,0,1,-257,-310)" stroke-linecap="butt">
      <text x="390.6318" xml:space="preserve" y="1007.8633" clip-path="url(#clipPath2)" stroke="none">Encode snapshot</text>
      <text x="405.9775" xml:space="preserve" y="1022.5645" clip-path="url(#clipPath2)" stroke="none">to bytecode</text>
      <rect fill="none" x="386" width="102" height="57" y="982" clip-path="url(#clipPath2)"/>
    </g>
    <g fill="rgb(224,234,255)" text-rendering="geometricPrecision" shape-rendering="geometricPrecision" transform="matrix(1,0,0,1,-257,-310)" stroke="rgb(224,234,255)">
      <ellipse rx="51" ry="28.5" clip-path="url(#clipPath2)" cx="583" cy="1136.5" stroke="none"/>
    </g>
    <g text-rendering="geometricPrecision" stroke-miterlimit="1.45" shape-rendering="geometricPrecision" font-family="sans-serif" transform="matrix(1,0,0,1,-257,-310)" stroke-linecap="butt">
      <text x="557.9834" xml:space="preserve" y="1141.2139" clip-path="url(#clipPath2)" stroke="none">Bytecode</text>
      <ellipse rx="51" fill="none" ry="28.5" clip-path="url(#clipPath2)" cx="583" cy="1136.5"/>
    </g>
    <g fill="rgb(224,234,255)" text-rendering="geometricPrecision" shape-rendering="geometricPrecision" transform="matrix(1,0,0,1,-257,-310)" stroke="rgb(224,234,255)">
      <rect x="386" width="102" height="57" y="697" clip-path="url(#clipPath2)" stroke="none"/>
    </g>
    <g text-rendering="geometricPrecision" stroke-miterlimit="1.45" shape-rendering="geometricPrecision" font-family="sans-serif" transform="matrix(1,0,0,1,-257,-310)" stroke-linecap="butt">
      <text x="415.3262" xml:space="preserve" y="730.2139" clip-path="url(#clipPath2)" stroke="none">Run VM</text>
      <rect fill="none" x="386" width="102" height="57" y="697" clip-path="url(#clipPath2)"/>
    </g>
    <g fill="rgb(224,234,255)" text-rendering="geometricPrecision" shape-rendering="geometricPrecision" transform="matrix(1,0,0,1,-257,-310)" stroke="rgb(224,234,255)">
      <ellipse rx="51" ry="28.5" clip-path="url(#clipPath2)" cx="583" cy="1010.5" stroke="none"/>
    </g>
    <g text-rendering="geometricPrecision" stroke-miterlimit="1.45" shape-rendering="geometricPrecision" font-family="sans-serif" transform="matrix(1,0,0,1,-257,-310)" stroke-linecap="butt">
      <text x="553.9844" xml:space="preserve" y="1015.2139" clip-path="url(#clipPath2)" stroke="none">Debug File</text>
      <ellipse rx="51" fill="none" ry="28.5" clip-path="url(#clipPath2)" cx="583" cy="1010.5"/>
    </g>
    <g fill="rgb(224,234,255)" text-rendering="geometricPrecision" shape-rendering="geometricPrecision" transform="matrix(1,0,0,1,-257,-310)" stroke="rgb(224,234,255)">
      <rect x="678" width="102" height="57" y="982" clip-path="url(#clipPath2)" stroke="none"/>
    </g>
    <g text-rendering="geometricPrecision" stroke-miterlimit="1.45" shape-rendering="geometricPrecision" font-family="sans-serif" transform="matrix(1,0,0,1,-257,-310)" stroke-linecap="butt">
      <text x="681.9727" xml:space="preserve" y="1007.8633" clip-path="url(#clipPath2)" stroke="none">Restore snapshot</text>
      <text x="690.9814" xml:space="preserve" y="1022.5645" clip-path="url(#clipPath2)" stroke="none">from bytecode</text>
      <rect fill="none" x="678" width="102" height="57" y="982" clip-path="url(#clipPath2)"/>
    </g>
    <g fill="rgb(224,234,255)" text-rendering="geometricPrecision" shape-rendering="geometricPrecision" transform="matrix(1,0,0,1,-257,-310)" stroke="rgb(224,234,255)">
      <rect x="545" width="102" height="57" y="792" clip-path="url(#clipPath2)" stroke="none"/>
    </g>
    <g text-rendering="geometricPrecision" stroke-miterlimit="1.45" shape-rendering="geometricPrecision" font-family="sans-serif" transform="matrix(1,0,0,1,-257,-310)" stroke-linecap="butt">
      <text x="549.6494" xml:space="preserve" y="817.8633" clip-path="url(#clipPath2)" stroke="none">Restore VM state</text>
      <text x="557.9814" xml:space="preserve" y="832.5645" clip-path="url(#clipPath2)" stroke="none">from snapshot</text>
      <rect fill="none" x="545" width="102" height="57" y="792" clip-path="url(#clipPath2)"/>
    </g>
    <g fill="rgb(224,234,255)" text-rendering="geometricPrecision" shape-rendering="geometricPrecision" transform="matrix(1,0,0,1,-257,-310)" stroke="rgb(224,234,255)">
      <rect x="532" width="102" height="57" y="1209" clip-path="url(#clipPath2)" stroke="none"/>
    </g>
    <g text-rendering="geometricPrecision" stroke-miterlimit="1.45" shape-rendering="geometricPrecision" font-family="sans-serif" transform="matrix(1,0,0,1,-257,-310)" stroke-linecap="butt">
      <text x="570.3262" xml:space="preserve" y="1234.8633" clip-path="url(#clipPath2)" stroke="none">Run </text>
      <text x="548.3242" xml:space="preserve" y="1249.5645" clip-path="url(#clipPath2)" stroke="none">Compact VM</text>
      <rect fill="none" x="532" width="102" height="57" y="1209" clip-path="url(#clipPath2)"/>
      <path fill="none" d="M351.4046 377.1705 L396.6542 414.8785" clip-path="url(#clipPath2)"/>
      <path d="M402.8 420 L396.7823 408.4767 L395.886 414.2383 L390.3804 416.1589 Z" clip-path="url(#clipPath2)" stroke="none"/>
      <path fill="none" d="M437 477 L437 499" clip-path="url(#clipPath2)"/>
      <path d="M437 507 L442 495 L437 498 L432 495 Z" clip-path="url(#clipPath2)" stroke="none"/>
      <path fill="none" d="M437 564 L437 594" clip-path="url(#clipPath2)"/>
      <path d="M437 602 L442 590 L437 593 L432 590 Z" clip-path="url(#clipPath2)" stroke="none"/>
      <path fill="none" d="M437 849 L437 879" clip-path="url(#clipPath2)"/>
      <path d="M437 887 L442 875 L437 878 L432 875 Z" clip-path="url(#clipPath2)" stroke="none"/>
      <path fill="none" d="M437 944 L437 974" clip-path="url(#clipPath2)"/>
      <path d="M437 982 L442 970 L437 973 L432 970 Z" clip-path="url(#clipPath2)" stroke="none"/>
      <path fill="none" d="M470.0238 1039 L549.2236 1107.3506" clip-path="url(#clipPath2)"/>
      <path d="M555.2801 1112.5774 L549.4622 1100.9519 L548.4666 1106.6973 L542.9286 1108.5225 Z" clip-path="url(#clipPath2)" stroke="none"/>
      <path fill="none" d="M437 659 L437 689" clip-path="url(#clipPath2)"/>
      <path d="M437 697 L442 685 L437 688 L432 685 Z" clip-path="url(#clipPath2)" stroke="none"/>
      <path fill="none" d="M437 754 L437 784" clip-path="url(#clipPath2)"/>
      <path d="M437 792 L442 780 L437 783 L432 780 Z" clip-path="url(#clipPath2)" stroke="none"/>
      <path fill="none" d="M488 1010.5 L524 1010.5" clip-path="url(#clipPath2)"/>
      <path d="M532 1010.5 L520 1005.5 L523 1010.5 L520 1015.5 Z" clip-path="url(#clipPath2)" stroke="none"/>
      <path fill="none" d="M634 1010.5 L670 1010.5" clip-path="url(#clipPath2)"/>
      <path d="M678 1010.5 L666 1005.5 L669 1010.5 L666 1015.5 Z" clip-path="url(#clipPath2)" stroke="none"/>
      <path fill="none" d="M610.7199 1112.5774 L689.9197 1044.2268" clip-path="url(#clipPath2)"/>
      <path d="M695.9762 1039 L683.6248 1043.0549 L689.1627 1044.8801 L690.1583 1050.6255 Z" clip-path="url(#clipPath2)" stroke="none"/>
      <path fill="none" d="M678 993.9075 L488.6821 932.3144" clip-path="url(#clipPath2)"/>
      <path d="M481.0746 929.8394 L490.9389 938.3066 L489.633 932.6238 L494.0327 928.7972 Z" clip-path="url(#clipPath2)" stroke="none"/>
      <path fill="none" d="M471.8372 894.6853 L541.4324 853.1033" clip-path="url(#clipPath2)"/>
      <path d="M548.3 849 L535.4341 850.8627 L540.574 853.6161 L540.5632 859.4471 Z" clip-path="url(#clipPath2)" stroke="none"/>
      <path fill="none" d="M548.3 792 L491.5676 758.1033" clip-path="url(#clipPath2)"/>
      <path d="M484.7 754 L492.4368 764.4471 L492.426 758.6161 L497.5659 755.8627 Z" clip-path="url(#clipPath2)" stroke="none"/>
      <path fill="none" d="M583 1165 L583 1201" clip-path="url(#clipPath2)"/>
      <path d="M583 1209 L588 1197 L583 1200 L578 1197 Z" clip-path="url(#clipPath2)" stroke="none"/>
    </g>
  </g>
</svg>
